<svg t="1621523586626" class="icon" viewBox="0 0 1024 1024" version="1.1" xmlns="http://www.w3.org/2000/svg" p-id="1945" width="200" height="200"><path d="M74.63 319.47c0.77 74.54 0.59 65.3 2.74 133.55 0.36 11.56 3.71 22.66 8.25 33.36 30.18 71.1 75.33 115 173.04 73.85L74.63 319.47z" fill="#FEDBC1" p-id="1946"></path><path d="M722.89 349.95s68.92-127.43-12.31-149.07c0 0-239.85-18.34-344.86-12.83-24.23 1.27-48.1-3.13-71.21-10.35-42.23-13.2-112.36-7.42-168.02 20.44-31.88 15.96-51.28 48.69-52.06 83.68-0.94 42.1-0.14 104.39 9.66 154.09 3.48 17.64 13.05 33.75 27.85 44.42 62.89 45.32 188.84 71.22 335.27 21.1 291.49-99.77 275.68-151.48 275.68-151.48z" fill="#F89494" p-id="1947"></path><path d="M289.38 539.61c-14.29 0-28.39-0.7-42.24-2.11-55.95-5.7-106.23-22.87-141.57-48.34-16.6-11.96-28.02-30.13-32.17-51.15-9.92-50.3-10.84-112.84-9.86-156.44 0.89-39.99 23.15-75.69 58.08-93.17 27.64-13.83 59.7-23.07 92.73-26.7 31.22-3.43 60.85-1.44 83.42 5.61 24.72 7.72 46.76 10.95 67.39 9.87 104.51-5.48 336.44 12.1 346.26 12.85l1 0.08 0.97 0.26c20.2 5.38 34.24 16.89 41.71 34.2 19.06 44.16-13.44 112.62-21.12 127.68-0.25 8.41-5.8 23.41-32.91 44.61-44.07 34.45-128.29 73.1-250.33 114.87-53.85 18.43-108.87 27.88-161.36 27.88z m-46.05-357.78c-34.34 0-75.35 7.72-111.96 26.05-27.69 13.86-45.34 42.29-46.05 74.18-0.95 42.52-0.08 103.36 9.46 151.74 3.07 15.58 11.43 28.97 23.53 37.69 32.29 23.27 78.83 39.02 131.05 44.34 61.57 6.27 128.78-2.27 194.33-24.71 250.38-85.7 267.31-134.23 268.4-139.28l-0.94-3.06 2.17-4c10.81-20.04 35.8-79.15 21.78-111.6-4.65-10.77-13.28-17.81-26.37-21.51-17.29-1.3-242.8-17.96-342.43-12.74-23.26 1.22-47.8-2.32-75.03-10.83-12.9-4.03-29.45-6.27-47.94-6.27z" fill="#F99494" p-id="1948"></path><path d="M171.75 525.6c-4.75 0-9.12-3.13-10.47-7.93-1.31-4.66-31.5-114.4 29.13-145.08 34.26-17.34 87.46-41.11 153.57-47.32 73.63-6.91 147.87 9.67 220.68 49.28 5.28 2.87 7.24 9.49 4.36 14.77-2.87 5.28-9.49 7.23-14.77 4.36-154.33-83.97-275.95-41.16-354.01-1.66-22.47 11.37-26.44 42.34-25.81 66.32 0.73 28.04 7.74 53.16 7.81 53.41 1.63 5.79-1.73 11.8-7.52 13.44-0.99 0.28-1.99 0.41-2.97 0.41zM182.53 309.01c-21.47 0-40.16-5.35-55.85-16.02-35.53-24.17-41.6-66.58-41.84-68.38-0.8-5.96 3.38-11.44 9.34-12.24 5.95-0.79 11.42 3.37 12.24 9.31 0.07 0.48 5.25 34.89 32.68 53.42 19.21 12.98 45.21 15.55 77.28 7.62 5.84-1.44 11.74 2.12 13.18 7.96 1.44 5.84-2.12 11.74-7.96 13.18-13.87 3.44-26.92 5.15-39.07 5.15z" fill="#FEDBC1" p-id="1949"></path><path d="M233.57 376.38c-5.38 0-10.06-3.99-10.78-9.47l-25.67-194.55c-0.79-5.96 3.41-11.43 9.37-12.22 5.96-0.79 11.43 3.41 12.22 9.37l25.67 194.55c0.79 5.96-3.41 11.43-9.37 12.22-0.49 0.07-0.97 0.1-1.44 0.1zM567.29 310.06h-0.02c-2.31 0-57.16-0.18-117.81-8.62-83.9-11.67-135.57-33.17-153.58-63.88-10.7-18.25-9.77-38.88 2.74-61.31 2.93-5.25 9.56-7.13 14.81-4.2 5.25 2.93 7.13 9.56 4.2 14.81-8.61 15.43-9.58 28.41-2.97 39.69 14.06 23.98 62.99 42.92 137.79 53.33 59.19 8.24 114.29 8.41 114.84 8.42 6.01 0.01 10.88 4.89 10.87 10.91 0.01 5.99-4.86 10.85-10.87 10.85zM556.08 260.75c-11.67 0-23.04-1.27-34.1-3.81-61.23-14.09-89.26-62.23-90.43-64.28-2.98-5.23-1.15-11.88 4.07-14.85 5.22-2.97 11.85-1.16 14.84 4.04 0.24 0.42 24.88 42.17 76.76 53.94 45.85 10.4 99.02-4.83 158.06-45.28 4.96-3.4 11.74-2.13 15.14 2.83 3.4 4.96 2.13 11.74-2.83 15.14-50.75 34.77-98.19 52.27-141.51 52.27zM260.32 711.14s88.97 197.67 371.26 126.43c0 0 156.97-30.71 259.07-110.8 42.48-33.32 87.64-108.53 36.37-299.46l-666.7 283.83z" fill="#FEDBC1" p-id="1950"></path><path d="M243.69 170.94c19.04 0 36.53 2.29 50.82 6.76 20.44 6.39 41.48 10.57 62.84 10.57 2.78 0 5.58-0.07 8.37-0.22 13.72-0.72 29.72-1.03 47.2-1.03 116.36 0 297.66 13.86 297.66 13.86 81.23 21.64 12.31 149.07 12.31 149.07s15.81 51.7-275.68 151.47c-56.34 19.28-109.65 27.31-157.5 27.31-76.52 0-139.08-20.53-177.77-48.42-14.8-10.67-24.37-26.78-27.85-44.42-9.8-49.7-10.6-111.99-9.66-154.09 0.78-34.98 20.18-67.72 52.06-83.68 36.82-18.41 79.97-27.18 117.2-27.18m0-10.89v10.89-10.89c-41.59 0-86.08 10.33-122.07 28.35-17.3 8.66-31.85 22.06-42.1 38.74-10.02 16.32-15.55 35.14-15.98 54.43-0.97 43.6-0.06 106.13 9.86 156.44 4.14 21.02 15.57 39.18 32.17 51.15 44.51 32.08 111.62 50.47 184.14 50.47 52.76 0 106.94-9.39 161.03-27.9 66.88-22.89 123.14-45.18 167.22-66.23 35.67-17.04 63.63-33.41 83.11-48.64 14.8-11.57 24.75-22.53 29.56-32.55 2.35-4.9 3.15-8.91 3.28-11.93 3.22-6.32 11.17-22.77 17.65-42.93 11.38-35.37 12.57-63.93 3.53-84.88-7.47-17.31-21.5-28.82-41.71-34.2l-0.97-0.26-1-0.08c-1.82-0.14-183.05-13.89-298.49-13.89-18.46 0-34.53 0.35-47.77 1.05-2.57 0.13-5.19 0.2-7.8 0.2-18.41 0-37.9-3.3-59.59-10.07-15.19-4.76-33.89-7.27-54.07-7.27z" fill="#F89494" p-id="1951"></path><path d="M432.71 389.28c-8.64 6.49-18.26 11.63-28.56 15.08-55.4 18.58-244.49 95.34-177.04 259.79 0 0 3.86 15.32 20.69 34.46 30.9 35.15 105.55 83.21 280.35 72.96 0 0 439.54-54.05 407.55-282.62-0.01 0-14.73-466.69-502.99-99.67z" fill="#F89494" p-id="1952"></path><path d="M481.94 783.86c-58.83 0-109.62-7.18-151.45-21.43-38.94-13.27-69.52-32.33-90.88-56.62-16.39-18.65-21.66-34.08-22.83-38.12-19.52-47.96-19.89-93.11-1.1-134.18 37.76-82.54 141.96-125.03 185-139.46 9.07-3.04 17.64-7.57 25.48-13.46C596.51 252.54 729.98 210.2 822.87 254.77c27.31 13.1 50.83 33.76 69.92 61.39 15.03 21.75 27.33 47.85 36.58 77.56 14.81 47.6 16.94 88.63 17.17 94.3 6.38 46.57-5.32 89.64-34.78 128.02-23.39 30.47-58.25 58.19-103.61 82.39-35.82 19.1-78.3 36.12-126.28 50.56-81.4 24.51-149.55 33.06-152.41 33.41l-0.69 0.06c-16.12 0.93-31.75 1.4-46.83 1.4z m-42.69-385.88c-9.71 7.3-20.36 12.92-31.65 16.7-40.35 13.53-137.91 53.08-172.12 127.87-16.26 35.55-15.69 75.07 1.69 117.47l0.29 0.72 0.19 0.75c0.01 0.05 3.71 13.33 18.31 29.93 18.82 21.4 46.25 38.36 81.55 50.39 49.79 16.97 113.59 23.34 189.62 18.91 5.24-0.67 71.95-9.53 148.8-32.71 104.21-31.42 179.79-74.74 218.57-125.28 25.88-33.72 36.11-71.5 30.4-112.28l-0.08-0.58-0.02-0.59c-0.01-0.41-1.53-42.19-16.39-89.65-13.4-42.8-40.76-99.28-95.04-125.29-38.04-18.23-85.22-19.75-140.21-4.54-66.58 18.44-145.28 61.56-233.91 128.18z" fill="#F99494" p-id="1953"></path><path d="M475.33 534.33a10.89 10.89 0 0 1-5.48-20.31c19.77-11.48 29.44-23.48 28.75-35.67-1.69-29.91-61.13-62.53-81.81-71.6-5.51-2.41-8.02-8.83-5.61-14.34 2.41-5.51 8.83-8.02 14.34-5.61 0.91 0.4 22.64 9.97 44.99 25.17 31.84 21.66 48.6 43.57 49.83 65.13 1.2 21.05-12.11 39.81-39.56 55.75a10.672 10.672 0 0 1-5.45 1.48z" fill="#FEDBC1" p-id="1954"></path><path d="M670.28 664.29c-4.7 0-9.43-0.6-14.19-1.86-24.38-6.49-52.9-30.6-84.78-71.66-36.78-47.36-97.38-68.28-154.36-53.29-103.28 27.17-189.51 109.7-190.37 110.53-4.32 4.18-11.22 4.07-15.4-0.26-4.18-4.32-4.07-11.21 0.25-15.39 0.92-0.89 22.97-22.13 58.63-47.12 33-23.12 84.3-53.82 141.34-68.83 32.22-8.48 66.08-7.08 97.9 4.05 31.41 10.98 58.8 30.67 79.21 56.95 28.49 36.68 53.8 58.81 73.19 63.97 24.88 6.63 52.03-18.25 70.42-40.3 23-27.58 41.25-60.86 50.09-78.25 6.4-12.6 13.86-23.82 22.17-33.35 24.37-27.93 50.13-41.23 74.48-38.44 25.56 2.92 48.46 23.04 68.05 59.81 2.83 5.31 0.82 11.9-4.49 14.73-5.31 2.83-11.9 0.82-14.73-4.49-16.03-30.06-33.29-46.35-51.31-48.41-21.4-2.44-42.04 15.57-55.6 31.12-7.23 8.29-13.5 17.74-19.17 28.89-20.96 41.28-73.49 131.6-131.33 131.6zM618.71 376.83c-29.91 0-64.48-13.23-103.27-39.61-4.97-3.38-6.26-10.15-2.88-15.13 3.38-4.97 10.15-6.27 15.13-2.88 49.55 33.68 89.76 43.69 119.5 29.75 47.27-22.15 55.27-98.73 55.34-99.5 0.58-5.98 5.91-10.36 11.88-9.79 5.98 0.58 10.37 5.89 9.79 11.87-0.35 3.65-9.2 89.62-67.7 117.11-11.61 5.46-24.22 8.18-37.79 8.18z" fill="#FEDBC1" p-id="1955"></path><path d="M658.08 651.08c-4.15 0-8.11-2.38-9.93-6.41-22.06-48.8-25.74-99.27-10.93-150.02 11.69-40.07 34.89-80.23 68.95-119.38 57.38-65.96 125.09-105.9 127.94-107.57 5.19-3.03 11.86-1.29 14.9 3.91s1.29 11.86-3.91 14.9c-0.86 0.5-67.91 40.16-122.84 103.45-72.15 83.12-90.4 165.81-54.26 245.75 2.48 5.48 0.04 11.93-5.44 14.41-1.46 0.64-2.98 0.96-4.48 0.96z" fill="#FEDBC1" p-id="1956"></path><path d="M861.54 462.86c-5.63 0-10.4-4.33-10.84-10.04-1.66-21.12-9.45-36.18-23.83-46.03-40.03-27.42-116.31-5.02-117.07-4.8-5.76 1.73-11.83-1.54-13.56-7.3-1.73-5.76 1.53-11.83 7.29-13.56 3.53-1.06 86.96-25.63 135.61 7.66 19.91 13.62 31.1 34.59 33.28 62.32 0.47 6-4.01 11.24-10 11.71-0.31 0.03-0.6 0.04-0.88 0.04z" fill="#FEDBC1" p-id="1957"></path><path d="M444.12 701.33c-35.16 0-63.48-8.29-84.58-24.83-33.03-25.88-35.19-62.23-35.27-63.77-0.3-6.01 4.33-11.12 10.34-11.41 6-0.32 11.09 4.31 11.41 10.29 0.08 1.28 2.06 28.47 27.28 48 26.25 20.33 67.65 25.17 123.07 14.38 5.9-1.14 11.62 2.71 12.77 8.61s-2.71 11.62-8.61 12.77c-20.41 3.98-39.23 5.96-56.41 5.96z" fill="#FEDBC1" p-id="1958"></path><path d="M653.74 490.61c-3.23 0-6.42-1.43-8.57-4.16-20.6-26.19-48.68-38.34-83.44-36.12-26.63 1.7-46.96 11.35-47.16 11.45-5.42 2.61-11.93 0.33-14.53-5.09-2.61-5.42-0.33-11.93 5.09-14.53 0.98-0.47 24.4-11.59 55.22-13.56 41.75-2.66 77 12.68 101.95 44.39 3.72 4.73 2.9 11.57-1.83 15.29-2 1.57-4.37 2.33-6.73 2.33z" fill="#FEDBC1" p-id="1959"></path><path d="M553.47 680.41a13.67 13.36 0 1 0 27.34 0 13.67 13.36 0 1 0-27.34 0Z" fill="#FDDAC0" p-id="1960"></path><path d="M481.94 783.86c-58.83 0-109.62-7.18-151.45-21.43-38.94-13.27-69.52-32.33-90.88-56.62-16.39-18.65-21.66-34.08-22.83-38.12-19.52-47.96-19.89-93.11-1.1-134.18 37.76-82.54 141.96-125.03 185-139.46 9.07-3.04 17.64-7.57 25.48-13.46C596.51 252.54 729.98 210.2 822.87 254.77c27.31 13.1 50.83 33.76 69.92 61.39 15.03 21.75 27.33 47.85 36.58 77.56 14.81 47.6 16.94 88.63 17.17 94.3 6.38 46.57-5.32 89.64-34.78 128.02-23.39 30.47-58.25 58.19-103.61 82.39-35.82 19.1-78.3 36.12-126.28 50.56-81.4 24.51-149.55 33.06-152.41 33.41l-0.69 0.06c-16.12 0.93-31.75 1.4-46.83 1.4z m-42.69-385.88c-9.71 7.3-20.36 12.92-31.65 16.7-40.35 13.53-137.91 53.08-172.12 127.87-16.26 35.55-15.69 75.07 1.69 117.47l0.29 0.72 0.19 0.75c0.01 0.05 3.71 13.33 18.31 29.93 18.82 21.4 46.25 38.36 81.55 50.39 49.79 16.97 113.59 23.34 189.62 18.91 5.24-0.67 71.95-9.53 148.8-32.71 104.21-31.42 179.79-74.74 218.57-125.28 25.88-33.72 36.11-71.5 30.4-112.28l-0.08-0.58-0.02-0.59c-0.01-0.41-1.53-42.19-16.39-89.65-13.4-42.8-40.76-99.28-95.04-125.29-38.04-18.23-85.22-19.75-140.21-4.54-66.58 18.44-145.28 61.56-233.91 128.18z" fill="#F99494" p-id="1961"></path></svg>