<svg t="1621523494656" class="icon" viewBox="0 0 1024 1024" version="1.1" xmlns="http://www.w3.org/2000/svg" p-id="1371" width="200" height="200"><path d="M566.528 746.88h-106.7264c-166.0928 0-300.7488-134.656-300.7488-300.7488v-20.6336h708.224v20.6336c0 166.0928-134.6304 300.7488-300.7488 300.7488z" fill="#BA8288" p-id="1372"></path><path d="M772.8128 438.0928s37.4016 285.696-262.2976 308.2496c79.1552 0 278.656 21.2992 349.5936-214.3744 0-84.864 3.1232-101.0688 3.1232-101.0688l-90.4192 7.1936z" fill="#8D545A" p-id="1373"></path><path d="M204.2112 440.7296s54.5792-233.6256 298.8544-232.96c64.9216-0.9216 259.2512 30.464 313.7024 217.728-165.8624 0-612.5568 15.232-612.5568 15.232z" fill="#DADAF7" p-id="1374"></path><path d="M633.0112 819.072h-237.3376c-25.9584 0-47.0272-17.3824-47.0272-38.8352v-33.8688h331.3664v33.8688c0.0256 21.4528-21.0176 38.8352-47.0016 38.8352z" fill="#8D545A" p-id="1375"></path><path d="M308.7616 630.6816c-2.9696 0-5.9648-0.8704-8.6272-2.6624-49.9456-33.9456-66.7904-105.2928-67.4816-108.3136a15.36768 15.36768 0 0 1 29.952-6.8864c0.1536 0.6144 14.9504 62.6944 54.8096 89.8048a15.35232 15.35232 0 0 1 4.0704 21.3248 15.34464 15.34464 0 0 1-12.7232 6.7328z" fill="#F7F8F8" p-id="1376"></path><path d="M348.928 338.7392c-3.8656 0-7.7824-1.2032-11.136-3.6608l-13.312-9.8048c-8.3712-6.1696-10.1376-17.92-3.9936-26.2912a18.81344 18.81344 0 0 1 26.2912-3.9936l13.312 9.8048c8.3712 6.1696 10.1376 17.92 3.9936 26.2912a18.72384 18.72384 0 0 1-15.1552 7.6544z" fill="#70E7D3" p-id="1377"></path><path d="M295.1424 389.1456c-5.9904 0-11.8528-2.8416-15.5136-8.1408a18.82368 18.82368 0 0 1 4.8128-26.1632l15.7696-10.8544a18.82368 18.82368 0 0 1 26.1632 4.8128 18.82368 18.82368 0 0 1-4.8128 26.1632l-15.7696 10.8544c-3.2512 2.2528-6.9632 3.328-10.6496 3.328z" fill="#F7F8F8" p-id="1378"></path><path d="M388.4544 393.3952c-6.0672 0-12.032-2.944-15.6672-8.3712l-7.7056-11.5712a18.80576 18.80576 0 0 1 5.2224-26.0864 18.81088 18.81088 0 0 1 26.0864 5.2224l7.7056 11.5712a18.80576 18.80576 0 0 1-15.6416 29.2352z" fill="#FFE08A" p-id="1379"></path><path d="M445.4144 361.5744c-3.6352 0-7.296-1.0496-10.5216-3.2256l-11.904-8.064c-8.6016-5.8112-10.8544-17.5104-5.0432-26.112 5.8112-8.6016 17.5104-10.8544 26.112-5.0432l11.904 8.064c8.6016 5.8112 10.8544 17.5104 5.0432 26.112a18.76224 18.76224 0 0 1-15.5904 8.2688z" fill="#67B8FA" p-id="1380"></path><path d="M466.304 402.5344c-6.7584 0-13.2864-3.6608-16.6656-10.0608a18.80064 18.80064 0 0 1 7.8848-25.3952l13.312-7.0144a18.80064 18.80064 0 0 1 25.3952 7.8848c4.8384 9.1904 1.3056 20.5568-7.8848 25.3952l-13.312 7.0144c-2.7904 1.4592-5.7856 2.176-8.7296 2.176zM407.7056 312.1152c-4.6336 0-9.2928-1.7152-12.928-5.1712-7.5264-7.1424-7.8592-19.0464-0.6912-26.5728l12.9792-13.6704c7.1424-7.5264 19.0464-7.8592 26.5728-0.6912 7.5264 7.1424 7.8592 19.0464 0.6912 26.5728l-12.9792 13.6704a18.816 18.816 0 0 1-13.6448 5.8624z" fill="#F7F8F8" p-id="1381"></path><path d="M492.7232 289.792c-3.5584 0-7.1424-0.9984-10.3168-3.0976l-13.312-8.7552a18.7904 18.7904 0 0 1-5.376-26.0352c5.7088-8.6784 17.3824-11.0848 26.0352-5.376l13.312 8.7552a18.7904 18.7904 0 0 1 5.376 26.0352 18.80064 18.80064 0 0 1-15.7184 8.4736z" fill="#FFE08A" p-id="1382"></path><path d="M535.0912 372.3008c-4.8128 0-9.6256-1.8432-13.2864-5.504l-13.6704-13.6704a18.8032 18.8032 0 0 1 0-26.5984 18.8032 18.8032 0 0 1 26.5984 0l13.6704 13.6704a18.8032 18.8032 0 0 1-13.312 32.1024z" fill="#FFA869" p-id="1383"></path><path d="M547.0464 309.8368c-7.9104 0-15.2832-5.0432-17.8688-12.9792-3.2256-9.8816 2.176-20.48 12.032-23.7056l17.1776-5.6064c9.856-3.2256 20.48 2.176 23.7056 12.032 3.2256 9.8816-2.176 20.48-12.032 23.7056l-17.1776 5.6064c-1.92 0.64-3.8912 0.9472-5.8368 0.9472z" fill="#FC697C" p-id="1384"></path><path d="M628.1984 307.5328c-4.5824 0-9.1648-1.664-12.8-5.0176l-9.8048-9.1136c-7.6032-7.0656-8.064-18.9696-0.9728-26.5728a18.83392 18.83392 0 0 1 26.5728-0.9984l9.8048 9.1136c7.6032 7.0656 8.064 18.9696 0.9728 26.5728a18.7392 18.7392 0 0 1-13.7728 6.016z" fill="#F7F8F8" p-id="1385"></path><path d="M577.7664 402.5344a18.80576 18.80576 0 0 1-14.7456-30.464l10.5216-13.312c6.4256-8.1664 18.2528-9.5488 26.4192-3.0976a18.80576 18.80576 0 0 1 3.0976 26.4192l-10.5216 13.312a18.81088 18.81088 0 0 1-14.7712 7.1424z" fill="#77C5E8" p-id="1386"></path><path d="M664.2432 394.7008c-6.0672 0-12.032-2.944-15.6672-8.3712l-9.472-14.1824a18.80576 18.80576 0 0 1 5.2224-26.0864 18.81088 18.81088 0 0 1 26.0864 5.2224l9.472 14.1824a18.80576 18.80576 0 0 1-15.6416 29.2352z" fill="#FFE08A" p-id="1387"></path><path d="M677.248 341.4272c-5.3248 0-10.624-2.2528-14.336-6.6304-6.7072-7.9104-5.76-19.7888 2.176-26.496l11.5712-9.8048c7.9104-6.7072 19.7888-5.7344 26.496 2.176 6.7072 7.9104 5.76 19.7888-2.176 26.496l-11.5712 9.8048a18.7392 18.7392 0 0 1-12.16 4.4544z" fill="#E5504C" p-id="1388"></path><path d="M738.9952 389.2224c-6.0416 0-11.9808-2.9184-15.616-8.2944l-11.5712-17.1776c-5.8112-8.6016-3.5328-20.3008 5.0944-26.112 8.6016-5.8112 20.3008-3.5328 26.112 5.0944l11.5712 17.1776c5.8112 8.6016 3.5328 20.3008-5.0944 26.112a18.9056 18.9056 0 0 1-10.496 3.2z" fill="#009F95" p-id="1389"></path><path d="M512.8192 44.1856c-94.4128 0-185.3184 28.1344-262.8864 81.3312-8.1664 5.6064-10.24 16.7424-4.6336 24.9088 5.6064 8.1664 16.768 10.24 24.9088 4.6336 71.5776-49.1008 155.4688-75.0592 242.6112-75.0592 236.7744 0 429.4144 192.64 429.4144 429.4144s-192.64 429.4144-429.4144 429.4144S83.4048 746.2144 83.4048 509.44c0-69.3504 16.0256-135.5264 47.5904-196.7104 4.5312-8.7808 1.1008-19.6096-7.7056-24.1408-8.7808-4.5312-19.6096-1.1008-24.1408 7.7056-33.7408 65.3568-51.584 139.0848-51.584 213.1456 0 256.5376 208.7168 465.2544 465.2544 465.2544S978.0736 765.9776 978.0736 509.44 769.3568 44.1856 512.8192 44.1856z" fill="#474E54" p-id="1390"></path><path d="M162.7648 230.6816a17.8688 17.8688 0 0 0 11.52 4.1984c5.12 0 10.1888-2.176 13.7472-6.4l1.8176-2.2016c0.4096-0.4352 1.1264-1.1776 2.432-2.6112 6.6816-7.296 6.1696-18.6368-1.1264-25.3184a17.92512 17.92512 0 0 0-25.3184 1.1264c-1.152 1.28-1.6128 1.7408-1.8176 1.9456-0.4608 0.4608-0.4864 0.4352-1.5872 1.7664l-1.8688 2.2272c-6.3744 7.6032-5.376 18.9184 2.2016 25.2672zM624.5632 245.12a17.92 17.92 0 0 0 12.4928-33.5872c-5.2224-1.9456-10.5728-3.7888-15.8976-5.4784a17.92 17.92 0 0 0-22.5024 11.648 17.93024 17.93024 0 0 0 11.648 22.5024c4.8128 1.5104 9.6 3.1744 14.2592 4.9152z" fill="#474E54" p-id="1391"></path><path d="M218.2656 359.0144a311.6544 311.6544 0 0 0-21.76 48.5632H159.0528c-9.9072 0-17.92 8.0128-17.92 17.92v20.6336c0 130.56 78.9248 242.9952 191.5392 292.1984-1.2288 2.432-1.92 5.1456-1.92 8.0384v33.8688c0 31.2832 29.1328 56.7552 64.9472 56.7552h237.3376c35.8144 0 64.9472-25.472 64.9472-56.7552v-33.8688c0-3.2512-0.8704-6.272-2.3808-8.8832 111.616-49.6384 189.6192-161.536 189.6192-291.3536v-20.6336c0-9.9072-8.0128-17.92-17.92-17.92h-34.3808c-20.3776-58.4192-57.984-109.6704-108.9024-148.352a17.92 17.92 0 0 0-25.1136 3.4304 17.92 17.92 0 0 0 3.4304 25.1136c41.8048 31.744 73.472 72.96 92.3136 119.7824H234.7776c43.904-109.4912 154.4704-182.0928 279.9104-182.0928 9.9072 0 17.92-8.0128 17.92-17.92s-8.0128-17.92-17.92-17.92c-84.3776 0-162.7648 29.5936-222.592 79.9488L215.3984 141.824a17.89696 17.89696 0 0 0-24.576-6.144c-8.4736 5.0944-11.2384 16.1024-6.144 24.576l80.7424 134.4512c-9.856 10.3936-19.0208 21.4528-27.4176 33.1264l-114.688-118.2976c-6.8864-7.1168-18.2272-7.2704-25.344-0.384-7.1168 6.8864-7.2704 18.2272-0.384 25.344l120.6784 124.5184z m443.8528 405.2736v15.9488c0 11.3408-13.3376 20.9152-29.1072 20.9152h-237.3376c-15.7696 0-29.1072-9.5744-29.1072-20.9152v-15.9488h75.264c5.9392 0.3328 11.9296 0.512 17.9456 0.512h106.7264c6.016 0 12.0064-0.1792 17.9456-0.512h77.6704z m187.2384-318.1568c0 150.2976-117.8624 273.5872-266.0096 282.3168h-140.3904c-148.1472-8.7296-266.0096-132.0192-266.0096-282.3168v-2.7136h672.384v2.7136z" fill="#474E54" p-id="1392"></path></svg>